# xmcd
#
# Track frame offsets:
#	150
#	11665
#	22470
#	33728
#	46275
#	59398
#	70543
#	82313
#	99693
#	112263
#	125683
#	140778
#	155435
#	168573
#	179473
#
# Disc length: 2527 seconds
#
# Revision: 1
# Processed by: cddbd v1.5.1PL2 Copyright (c) Steve Scherf et al.
# Submitted via: audiograbber 1.83.01
#
DISCID=e609dd0f
DTITLE=John Lee Hooker - Essential
DYEAR=2002
DGENRE=Blues
TTITLE0=Boom Boom
TTITLE1=Maudie
TTITLE2=Shake, Holler, And Run
TTITLE3=I'm In The Mood
TTITLE4=Rock House Boogie
TTITLE5=No Shoes
TTITLE6=I Love You Honey
TTITLE7=Blues Before Sunrise
TTITLE8=I Rule My Den
TTITLE9=Ground Hog Blues
TTITLE10=Ramblin' By Myself
TTITLE11=Sugar mama
TTITLE12=I'm So Excited
TTITLE13=Little Fine Woman
TTITLE14=I Wanna Talk
EXTD=
EXTT0=
EXTT1=
EXTT2=
EXTT3=
EXTT4=
EXTT5=
EXTT6=
EXTT7=
EXTT8=
EXTT9=
EXTT10=
EXTT11=
EXTT12=
EXTT13=
EXTT14=
PLAYORDER=
